<?xml version="1.0" encoding="iso-8859-1"?>
<!-- Uploaded to: SVG Repo, www.svgrepo.com, Generator: SVG Repo Mixer Tools -->
<svg fill="#FFFFFF" height="100" width="100" version="1.1" id="Layer_1" xmlns="http://www.w3.org/2000/svg" xmlns:xlink="http://www.w3.org/1999/xlink" 
	 viewBox="0 0 512 512" xml:space="preserve">
<g>
	<g>
		<path d="M256,0C114.51,0,0,114.497,0,256c0,141.491,114.497,256,256,256c141.49,0,256-114.497,256-256
			C512,114.509,397.503,0,256,0z M424.695,401.085L352.58,328.97l-17.486,29.736l65.99,65.99
			c-38.992,33.582-89.707,53.912-145.084,53.912c-122.746,0-222.609-99.862-222.609-222.609c0-55.377,20.331-106.092,53.914-145.085
			l96.508,96.509l-36.843,62.653c-6.539,11.12,1.504,25.159,14.392,25.159h74.366l-6.644,115.633
			c-1.003,17.45,22.19,24.504,31.059,9.421l104.887-178.366c6.539-11.12-1.504-25.159-14.392-25.159h-74.366l6.644-115.633
			c1.003-17.448-22.225-24.446-31.06-9.421l-50.558,85.977l-90.383-90.382C149.908,53.722,200.623,33.391,256,33.391
			c122.746,0,222.609,99.862,222.609,222.609C478.609,311.377,458.278,362.092,424.695,401.085z"/>
	</g>
</g>
</svg>